<?xml version="1.0" encoding="UTF-8"?>
<svg width="189.75" height="28" aria-label="BOARDGAMEGEEK: 83" role="img" version="1.1" xmlns="http://www.w3.org/2000/svg">
 <title>BOARDGAMEGEEK: 83</title>
 <g shape-rendering="crispEdges">
  <rect width="149.25" height="28" fill="#555"/>
  <rect x="149.25" width="40.5" height="28" fill="#fa5c5c"/>
 </g>
 <g fill="#ffffff" font-family="Verdana, Geneva, 'DejaVu Sans', sans-serif" font-size="100px" text-anchor="middle" text-rendering="geometricPrecision">
  <text transform="scale(.1)" x="831.25" y="175" textLength="1082.5">BOARDGAMEGEEK</text>
  <text transform="scale(.1)" x="1695" y="175" font-weight="bold" textLength="165">83</text>
 </g>
 <path d="m16.211 6.538a0.52748 0.52748 0 0 0-0.25504 0.052168l-6.2949 2.2258c-0.27823 0.14491-0.27823 0.35358 0 0.51009l6.3007 2.6084c0.07535 0.05796 0.41734 0.05796 0.51009 0l6.3007-2.6084c0.24345-0.12173 0.23186-0.36518 0-0.51009l-6.3065-2.2258a0.56226 0.56226 0 0 0-0.25504-0.057965zm-0.03478 1.936c0.30721 0 0.60283 0.040575 0.83469 0.12752 0.37677 0.13911 0.42894 0.3246 0.42894 0.43473 0 0.10434-0.02898 0.28982-0.39416 0.43473-0.23186 0.09274-0.56226 0.14491-0.88686 0.14491-0.3188 0-0.60863-0.04058-0.83469-0.12752-0.36518-0.13912-0.41734-0.3304-0.41734-0.43473 0-0.10434 0.04637-0.31301 0.41734-0.45212 0.22606-0.086947 0.54487-0.12752 0.85208-0.12752zm-6.9789 1.5361c-0.13911-0.0058-0.23765 0.06956-0.23765 0.22026v7.3383c0 0.19708 0.1681 0.44053 0.38257 0.53907l6.1906 3.3156c0.21447 0.10434 0.38257 0.01739 0.38257-0.17969v-8.0455c0-0.19708-0.1681-0.44053-0.38257-0.53907l-6.1848-2.6084a0.42314 0.42314 0 0 0-0.14491-0.04058zm14.016 0a0.42314 0.42314 0 0 0-0.14491 0.04058l-6.1906 2.6084c-0.21447 0.09854-0.38257 0.34779-0.38257 0.54487v8.0397c0 0.19708 0.1681 0.28403 0.38257 0.17969l6.1906-3.3156c0.21447-0.09854 0.38257-0.34199 0.38257-0.53907v-7.3383c0-0.15071-0.09854-0.23186-0.23186-0.22026zm-9.2453 2.8287c0.10434 0 0.23186 0.04057 0.34199 0.09274a1.6578 1.6578 0 0 1 0.90425 1.4491c0 0.23186-0.05796 0.43473-0.17969 0.57964-0.12173 0.14491-0.28982 0.23186-0.4927 0.23186-0.11593 0-0.22026-0.03478-0.34199-0.08695a1.71 1.71 0 0 1-0.90425-1.4491c0-0.47531 0.27243-0.8173 0.66659-0.8173zm5.2864 0.655c0.38836 0 0.655 0.3246 0.655 0.79411 0 0.57964-0.38257 1.1999-0.86947 1.4317-0.12752 0.05797-0.24925 0.08695-0.36518 0.08695-0.38836 0-0.655-0.3246-0.655-0.79411a1.681 1.681 0 0 1 0.89265-1.4491c0.11593-0.05217 0.23186-0.07535 0.34199-0.07535zm-7.263 0.8115c0.11013 0 0.23186 0.03478 0.34779 0.09274 0.48111 0.22606 0.86947 0.85208 0.86947 1.4317 0 0.22026-0.07535 0.42314-0.18549 0.55646a0.55646 0.55646 0 0 1-0.45212 0.22026c-0.11593 0-0.24345-0.02898-0.36518-0.09274a1.71 1.71 0 0 1-0.84628-1.4259c0-0.46951 0.25504-0.78252 0.63181-0.78252zm9.5641 0.86947c0.36518 0 0.61442 0.30721 0.61442 0.75934 0 0.55646-0.37677 1.1825-0.83469 1.4143-0.11593 0.06376-0.23186 0.09274-0.34199 0.09274-0.36518 0-0.61442-0.28982-0.61442-0.74195 0-0.56805 0.36518-1.2057 0.82889-1.4317 0.11593-0.05796 0.23766-0.09274 0.34779-0.09274zm-11.431 0.52168c0.11013 0 0.21447 0.04058 0.3246 0.09274 0.46372 0.23186 0.8115 0.85208 0.8115 1.4143 0 0.21447-0.04057 0.40575-0.13912 0.54487a0.56805 0.56805 0 0 1-0.45212 0.21447c-0.11593 0-0.22606-0.04058-0.34779-0.10434a1.6752 1.6752 0 0 1-0.79411-1.3969c0-0.45212 0.23765-0.75934 0.59703-0.75934z" fill="#fff" stroke-width=".57964"/>
</svg>
